<svg xmlns="http://www.w3.org/2000/svg" width="49.801" height="49.801" viewBox="0 0 49.801 49.801">
  <path id="Icon_awesome-plus" data-name="Icon awesome-plus" d="M45.315,21.422H29.629V5.736A3.486,3.486,0,0,0,26.144,2.25H22.658a3.486,3.486,0,0,0-3.486,3.486V21.422H3.486A3.486,3.486,0,0,0,0,24.908v3.486a3.486,3.486,0,0,0,3.486,3.486H19.172V47.565a3.486,3.486,0,0,0,3.486,3.486h3.486a3.486,3.486,0,0,0,3.486-3.486V31.879H45.315A3.486,3.486,0,0,0,48.8,28.394V24.908A3.486,3.486,0,0,0,45.315,21.422Z" transform="translate(0.5 -1.75)" fill="#fff" stroke="#0f0f0f" stroke-width="1"/>
</svg>
